<svg xmlns="http://www.w3.org/2000/svg" viewBox="0 0 1200 630" fill="none">
  <defs>
    <linearGradient id="bg-gradient" x1="0%" y1="0%" x2="100%" y2="100%">
      <stop offset="0%" style="stop-color:#0A0A0A"/>
      <stop offset="100%" style="stop-color:#1A1A2E"/>
    </linearGradient>
    <linearGradient id="accent-gradient" x1="0%" y1="0%" x2="100%" y2="0%">
      <stop offset="0%" style="stop-color:#FFAF40"/>
      <stop offset="50%" style="stop-color:#9A8FEA"/>
      <stop offset="100%" style="stop-color:#65B4FF"/>
    </linearGradient>
    <filter id="glow" x="-50%" y="-50%" width="200%" height="200%">
      <feGaussianBlur stdDeviation="20" result="coloredBlur"/>
      <feMerge>
        <feMergeNode in="coloredBlur"/>
        <feMergeNode in="SourceGraphic"/>
      </feMerge>
    </filter>
  </defs>
  
  <rect width="1200" height="630" fill="url(#bg-gradient)"/>
  
  <circle cx="200" cy="100" r="300" fill="#9A8FEA" opacity="0.1" filter="url(#glow)"/>
  <circle cx="1000" cy="500" r="250" fill="#65B4FF" opacity="0.1" filter="url(#glow)"/>
  <circle cx="600" cy="315" r="150" fill="#FFAF40" opacity="0.05" filter="url(#glow)"/>
  
  <pattern id="grid" width="60" height="60" patternUnits="userSpaceOnUse">
    <path d="M 60 0 L 0 0 0 60" fill="none" stroke="white" stroke-width="0.5" opacity="0.05"/>
  </pattern>
  <rect width="1200" height="630" fill="url(#grid)"/>
  
  <g transform="translate(700, 150)">
    <rect x="0" y="0" width="400" height="330" rx="12" fill="#1A1A1A" stroke="white" stroke-opacity="0.1"/>
    <rect x="0" y="0" width="400" height="40" rx="12" fill="#252525"/>
    <circle cx="20" cy="20" r="6" fill="#FF5F57"/>
    <circle cx="40" cy="20" r="6" fill="#FFBD2E"/>
    <circle cx="60" cy="20" r="6" fill="#28CA42"/>
    
    <rect x="100" y="12" width="200" height="16" rx="4" fill="#1A1A1A"/>
    <text x="110" y="24" font-family="Inter, sans-serif" font-size="10" fill="#6B7280">seopages.pro</text>
    
    <rect x="20" y="60" width="160" height="20" rx="4" fill="url(#accent-gradient)"/>
    <rect x="20" y="90" width="360" height="8" rx="2" fill="white" opacity="0.1"/>
    <rect x="20" y="105" width="320" height="8" rx="2" fill="white" opacity="0.1"/>
    <rect x="20" y="120" width="280" height="8" rx="2" fill="white" opacity="0.05"/>
    
    <rect x="20" y="150" width="110" height="80" rx="8" fill="white" opacity="0.05"/>
    <rect x="145" y="150" width="110" height="80" rx="8" fill="white" opacity="0.05"/>
    <rect x="270" y="150" width="110" height="80" rx="8" fill="white" opacity="0.05"/>
    
    <circle cx="75" cy="180" r="12" fill="#9A8FEA" opacity="0.3"/>
    <path d="M70 180 L73 183 L80 176" stroke="white" stroke-width="2" fill="none"/>
    <circle cx="200" cy="180" r="12" fill="#65B4FF" opacity="0.3"/>
    <path d="M195 180 L198 183 L205 176" stroke="white" stroke-width="2" fill="none"/>
    <circle cx="325" cy="180" r="12" fill="#FFAF40" opacity="0.3"/>
    <path d="M320 180 L323 183 L330 176" stroke="white" stroke-width="2" fill="none"/>
    
    <rect x="20" y="260" width="120" height="40" rx="8" fill="url(#accent-gradient)"/>
    <text x="45" y="285" font-family="Inter, sans-serif" font-size="12" font-weight="600" fill="white">Generate</text>
  </g>
  
  <g transform="translate(80, 200)">
    <text font-family="Inter, sans-serif" font-size="48" font-weight="700" fill="white">
      <tspan x="0" y="0">Alternative Page vs</tspan>
      <tspan x="0" y="60">Landing Page</tspan>
    </text>
    
    
    <rect x="0" y="160" width="100" height="4" rx="2" fill="url(#accent-gradient)"/>
  </g>
  
  <text x="60" y="590" font-family="Playfair Display, Georgia, serif" font-size="16" font-style="italic" fill="white" opacity="0.5">
    seopages.pro
  </text>
</svg>